<svg width="32.000000" height="32.000000" viewBox="0 0 32 32" fill="none" xmlns="http://www.w3.org/2000/svg" xmlns:xlink="http://www.w3.org/1999/xlink">
	<desc>
			Created with Pixso.
	</desc>
	<defs/>
	<g opacity="0.500647">
		<circle id="Oval" cx="16.000000" cy="16.000000" r="16.000000" fill="#10141E" fill-opacity="1.000000"/>
	</g>
	<path id="Path" d="M21.0105 9.08328C20.8828 9.02777 20.749 9 20.6094 9L11.0574 9Q10.947 9 10.8418 9.02301L10.8418 9.02304Q10.7471 9.04379 10.6562 9.08328Q10.4788 9.1543 10.344 9.27371Q10.2505 9.35654 10.1777 9.46265Q10.0896 9.59122 10.0452 9.73346Q10 9.87787 10 10.0363L10 21.9637C10 22.1734 10.0593 22.3646 10.1777 22.5374C10.2961 22.7101 10.4558 22.8365 10.6562 22.9167Q10.7471 22.9562 10.8418 22.977Q10.947 23 11.0574 23Q11.2354 23 11.3962 22.9472Q11.6221 22.873 11.8137 22.6946L15.8333 18.7713L19.8528 22.6946C20.0654 22.8921 20.3176 22.9908 20.6094 22.9908C20.7612 22.9908 20.895 22.9661 21.0105 22.9167C21.2109 22.8365 21.3704 22.7101 21.489 22.5374C21.6074 22.3646 21.6667 22.1734 21.6667 21.9637L21.6667 10.0363Q21.6667 9.87787 21.6216 9.73346Q21.5771 9.59122 21.489 9.46265C21.3704 9.28992 21.2109 9.16348 21.0105 9.08328ZM20.1667 20.9048L20.1667 10.5L11.5 10.5L11.5 20.9048L15.8333 16.6752L20.1667 20.9048Z" fill="#FFFFFF" fill-opacity="1.000000" fill-rule="evenodd"/>
</svg>
