<svg width="32.000000" height="32.000000" viewBox="0 0 32 32" fill="none" xmlns="http://www.w3.org/2000/svg" xmlns:xlink="http://www.w3.org/1999/xlink">
	<desc>
			Created with Pixso.
	</desc>
	<defs/>
	<g opacity="0.500647">
		<circle id="Oval" cx="16.000000" cy="16.000000" r="16.000000" fill="#10141E" fill-opacity="1.000000"/>
	</g>
	<path id="Path" d="M20.6094 9C20.749 9 20.8828 9.02777 21.0103 9.08325C21.2109 9.16345 21.3706 9.28992 21.4888 9.46265C21.6074 9.63538 21.6665 9.8266 21.6665 10.0364L21.6665 21.9636C21.6665 22.1734 21.6074 22.3646 21.4888 22.5374C21.3706 22.7101 21.2109 22.8365 21.0103 22.9167C20.895 22.9661 20.7612 22.9907 20.6094 22.9907C20.3179 22.9907 20.0654 22.892 19.853 22.6946L15.8335 18.7713L11.814 22.6946C11.5952 22.8982 11.3428 23 11.0571 23C10.9175 23 10.7837 22.9722 10.6562 22.9167C10.4556 22.8365 10.2964 22.7101 10.1777 22.5374C10.0591 22.3646 10 22.1734 10 21.9636L10 10.0364C10 9.8266 10.0591 9.63538 10.1777 9.46265C10.2964 9.28992 10.4556 9.16345 10.6562 9.08325C10.7837 9.02777 10.9175 9 11.0571 9L20.6094 9Z" fill="#FFFFFF" fill-opacity="1.000000" fill-rule="nonzero"/>
</svg>
