<svg width="16.919922" height="20.000000" viewBox="0 0 16.9199 20" fill="none" xmlns="http://www.w3.org/2000/svg" xmlns:xlink="http://www.w3.org/1999/xlink">
	<desc>
			Created with Pixso.
	</desc>
	<defs/>
	<path id="Path" d="M15.3867 0C15.5894 0 15.7832 0.0396576 15.9683 0.118973C16.2593 0.233536 16.4902 0.414185 16.6621 0.660934C16.834 0.907684 16.9199 1.18088 16.9199 1.4805L16.9199 18.5195C16.9199 18.8191 16.834 19.0923 16.6621 19.3391C16.4902 19.5858 16.2593 19.7665 15.9683 19.881C15.8008 19.9515 15.6069 19.9868 15.3867 19.9868C14.9639 19.9868 14.5981 19.8458 14.2896 19.5638L8.45996 13.959L2.63037 19.5638C2.31348 19.8546 1.94775 20 1.5332 20C1.33057 20 1.13672 19.9603 0.95166 19.881C0.661133 19.7665 0.429688 19.5858 0.257812 19.3391C0.0859375 19.0923 0 18.8191 0 18.5195L0 1.4805C0 1.18088 0.0859375 0.907684 0.257812 0.660934C0.429688 0.414185 0.661133 0.233536 0.95166 0.118973C1.13672 0.0396576 1.33057 0 1.5332 0L15.3867 0Z" fill="#5A698F" fill-opacity="1.000000" fill-rule="nonzero"/>
</svg>
